Coordinates
version=1
nRows=18
nColumns=22
inDegrees=yes

Units are S.I. units (second, meters, Newtons, ...)
If the header above contains a line with 'inDegrees', this indicates whether rotational values are in degrees (yes) or radians (no).

endheader
time	pelvis_tilt	pelvis_list	pelvis_rotation	pelvis_tx	pelvis_ty	pelvis_tz	hip_flexion_r	hip_adduction_r	hip_rotation_r	knee_angle_r	ankle_angle_r	subtalar_angle_r	hip_flexion_l	hip_adduction_l	hip_rotation_l	knee_angle_l	ankle_angle_l	subtalar_angle_l	lumbar_extension	lumbar_bending	lumbar_rotation
      2.64000000	     -5.10325189	     -9.77669983	     22.30281889	      0.13620913	      0.97083530	      0.10399826	     12.15200178	      7.63555799	     -9.50354679	    -22.66081367	     22.49338406	     -4.60281281	     38.65439749	     -8.14362504	    -13.64892847	    -32.67744799	     13.48004066	      0.61618675	     -3.74346875	      8.80464791	      9.42266683
      2.65000000	     -5.06693145	     -9.87798830	     22.80000896	      0.14185841	      0.97025480	      0.10140086	     11.65354947	      7.70993812	     -9.87115918	    -22.44780793	     22.73130666	     -4.50672441	     38.83914688	     -7.94274180	    -13.74979121	    -31.21346957	     13.28283659	      0.87055239	     -3.72366240	      8.87141748	      9.43836515
      2.66000000	     -4.97598823	     -9.98459020	     23.27062192	      0.14763473	      0.96972761	      0.09875117	     11.07284487	      7.83163353	    -10.17255785	    -22.18913814	     22.93757209	     -4.35634767	     38.95882871	     -7.79696083	    -13.84760430	    -29.84903528	     13.23255181	      1.15738508	     -3.75398719	      8.95950958	      9.47126208
      2.67000000	     -4.89475738	    -10.11503239	     23.70533445	      0.15351390	      0.96912313	      0.09608197	     10.50780532	      7.98706721	    -10.42985546	    -21.93268286	     23.10805883	     -4.23605820	     39.09264152	     -7.69798553	    -13.93844630	    -28.60103092	     13.25180111	      1.35411794	     -3.75219896	      9.05677531	      9.52879244
      2.68000000	     -4.79209969	    -10.25274176	     24.10950639	      0.15949675	      0.96850434	      0.09334559	      9.91654703	      8.16767749	    -10.65423729	    -21.67004112	     23.24563042	     -4.11673621	     39.20143483	     -7.64092239	    -14.03607030	    -27.47741001	     13.34417724	      1.50234960	     -3.76174064	      9.16741504	      9.60487873
      2.69000000	     -4.68452833	    -10.39843197	     24.48273729	      0.16557487	      0.96784140	      0.09053844	      9.32401799	      8.36353500	    -10.85115669	    -21.41735011	     23.35886625	     -4.00590906	     39.30098572	     -7.61513170	    -14.13091178	    -26.48421815	     13.48338266	      1.60051398	     -3.76290590	      9.28433974	      9.69676811
      2.70000000	     -4.56565529	    -10.54208363	     24.82484416	      0.17175725	      0.96715669	      0.08764583	      8.71962542	      8.56516441	    -11.02436401	    -21.17655060	     23.45321399	     -3.88042986	     39.37456716	     -7.61336199	    -14.22542577	    -25.62353599	     13.64909036	      1.67134981	     -3.76587572	      9.40110307	      9.80357798
      2.71000000	     -4.44416715	    -10.68401033	     25.13741564	      0.17803461	      0.96643246	      0.08466081	      8.11903900	      8.76659871	    -11.17383895	    -20.96338651	     23.53500953	     -3.73752899	     39.43076268	     -7.62619623	    -14.29863348	    -24.90266839	     13.83196390	      1.72185402	     -3.76146142	      9.51505584	      9.91805128
      2.72000000	     -4.31855078	    -10.81346628	     25.41991007	      0.18441979	      0.96569046	      0.08156216	      7.51446764	      8.95473918	    -11.30365242	    -20.77831426	     23.60729060	     -3.55335812	     39.45076082	     -7.64336532	    -14.35144882	    -24.31262386	     14.00512243	      1.76303070	     -3.75448842	      9.61728638	     10.04188946
      2.73000000	     -4.20055247	    -10.93833358	     25.67051877	      0.19090303	      0.96490064	      0.07834918	      6.92748285	      9.13001203	    -11.41263093	    -20.63562222	     23.67465817	     -3.33990890	     39.44964235	     -7.66338277	    -14.36701193	    -23.85863564	     14.16296031	      1.79165333	     -3.72788991	      9.71206123	     10.17107362
      2.74000000	     -4.08868954	    -11.04163311	     25.89361697	      0.19747665	      0.96408794	      0.07499321	      6.35217258	      9.27143038	    -11.50307846	    -20.54340328	     23.73824111	     -3.06773380	     39.41028494	     -7.66865674	    -14.34858120	    -23.53385389	     14.27026291	      1.80262049	     -3.69061109	      9.78506252	     10.30112200
      2.75000000	     -3.99520175	    -11.15663664	     26.09162824	      0.20413039	      0.96319898	      0.07152438	      5.81803736	      9.41068621	    -11.56220844	    -20.50262169	     23.81074232	     -2.81558150	     39.36833227	     -7.67617024	    -14.26405610	    -23.34396176	     14.32524413	      1.77976511	     -3.61524647	      9.86260666	     10.41910026
      2.76000000	     -3.90449501	    -11.22102148	     26.27791747	      0.21087948	      0.96233133	      0.06786425	      5.28144420	      9.47916974	    -11.64890457	    -20.52115830	     23.86674418	     -2.42915140	     39.26962181	     -7.63639045	    -14.15167201	    -23.28321459	     14.26512451	      1.67902272	     -3.54326311	      9.88825943	     10.53818159
      2.77000000	     -3.84571487	    -11.27502283	     26.45606812	      0.21767723	      0.96140568	      0.06404796	      4.79770053	      9.51160065	    -11.70909539	    -20.60793608	     23.93504786	     -2.03479403	     39.17754579	     -7.56006814	    -13.95929457	    -23.35924710	     14.06664257	      1.48298053	     -3.42838444	      9.89314929	     10.62696505
      2.78000000	     -3.81075603	    -11.29765758	     26.62813913	      0.22451812	      0.96047117	      0.06005540	      4.36028585	      9.48438600	    -11.76835378	    -20.78599825	     24.02069973	     -1.57128625	     39.07172496	     -7.43250474	    -13.70011639	    -23.55679043	     13.71877464	      1.14121419	     -3.29058611	      9.85943917	     10.69908423
      2.79000000	     -3.79675500	    -11.28891079	     26.81559063	      0.23137009	      0.95954534	      0.05587683	      3.97383782	      9.39995621	    -11.83094240	    -21.06361548	     24.09902027	     -1.07488681	     38.96768024	     -7.24300822	    -13.34924496	    -23.88100855	     13.20279083	      0.66815173	     -3.13591705	      9.79039858	     10.71417519
      2.80000000	     -3.80518566	    -11.24025474	     27.02325907	      0.23826010	      0.95867300	      0.05149293	      3.61641561	      9.25686140	    -11.86652189	    -21.40449484	     24.17431795	     -0.47884550	     38.86606062	     -6.98649088	    -12.92925579	    -24.31833344	     12.52340404	      0.02048354	     -2.96100357	      9.67340892	     10.69285129
      2.81000000	     -3.82994177	    -11.13474197	     27.27931836	      0.24510128	      0.95787860	      0.04686243	      3.31211997	      9.02669991	    -11.94936881	    -21.87442731	     24.21395845	      0.11900849	     38.76470275	     -6.62695617	    -12.38512632	    -24.85011863	     11.74098689	     -0.67967640	     -2.78965013	      9.50218070	     10.59709525
